<svg id='Discount_24' width='24' height='24' viewBox='0 0 24 24' xmlns='http://www.w3.org/2000/svg' xmlns:xlink='http://www.w3.org/1999/xlink'><rect width='24' height='24' stroke='none' fill='#000000' opacity='0'/>


<g transform="matrix(0.78 0 0 0.78 12 12)" >
<path style="stroke: none; stroke-width: 1; stroke-dasharray: none; stroke-linecap: butt; stroke-dashoffset: 0; stroke-linejoin: miter; stroke-miterlimit: 4; fill: rgb(0,0,0); fill-rule: nonzero; opacity: 1;" transform=" translate(-13, -13.01)" d="M 10.15625 0.21875 C 9.878906 0.191406 9.613281 0.300781 9.4375 0.53125 L 7.75 2.8125 L 4.90625 2.90625 C 4.519531 2.921875 4.1875 3.210938 4.125 3.59375 L 3.6875 6.40625 L 1.21875 7.8125 C 0.882813 8.003906 0.722656 8.414063 0.84375 8.78125 L 1.75 11.46875 L 0.25 13.875 C 0.0429688 14.199219 0.0976563 14.605469 0.375 14.875 L 2.40625 16.84375 L 2.1875 19.6875 C 2.15625 20.074219 2.410156 20.425781 2.78125 20.53125 L 5.5 21.3125 L 6.59375 23.90625 C 6.746094 24.261719 7.121094 24.488281 7.5 24.40625 L 10.28125 23.84375 L 12.5 25.625 C 12.648438 25.746094 12.816406 25.8125 13 25.8125 C 13.183594 25.8125 13.351563 25.746094 13.5 25.625 L 15.71875 23.84375 L 18.5 24.40625 C 18.878906 24.488281 19.253906 24.292969 19.40625 23.9375 L 20.5 21.3125 L 23.21875 20.53125 C 23.589844 20.421875 23.84375 20.074219 23.8125 19.6875 L 23.59375 16.84375 L 25.625 14.875 C 25.902344 14.605469 25.957031 14.199219 25.75 13.875 L 24.25 11.46875 L 25.15625 8.78125 C 25.277344 8.414063 25.117188 8.003906 24.78125 7.8125 L 22.3125 6.40625 L 21.875 3.59375 C 21.8125 3.210938 21.480469 2.921875 21.09375 2.90625 L 18.25 2.8125 L 16.5625 0.53125 C 16.332031 0.222656 15.910156 0.113281 15.5625 0.28125 L 13 1.5 L 10.4375 0.28125 C 10.351563 0.238281 10.25 0.226563 10.15625 0.21875 Z M 9 7.03125 C 9.910156 7.03125 10.632813 7.308594 11.15625 7.84375 C 11.679688 8.378906 11.9375 9.074219 11.9375 9.96875 C 11.9375 10.867188 11.679688 11.589844 11.15625 12.125 C 10.632813 12.660156 9.910156 12.9375 9 12.9375 C 8.382813 12.9375 7.828125 12.816406 7.375 12.5625 C 6.921875 12.308594 6.597656 11.9375 6.375 11.46875 C 6.152344 11 6.03125 10.492188 6.03125 9.96875 C 6.03125 9.449219 6.152344 8.96875 6.375 8.5 C 6.597656 8.027344 6.921875 7.660156 7.375 7.40625 C 7.828125 7.152344 8.382813 7.03125 9 7.03125 Z M 15.40625 7.125 L 17 7.125 L 10.625 18.90625 L 9.0625 18.90625 Z M 9.03125 8.40625 C 8.78125 8.40625 8.601563 8.507813 8.46875 8.6875 C 8.269531 8.96875 8.15625 9.410156 8.15625 10.03125 C 8.15625 10.652344 8.269531 11.09375 8.46875 11.375 C 8.601563 11.5625 8.78125 11.65625 9.03125 11.65625 C 9.285156 11.65625 9.46875 11.558594 9.59375 11.375 C 9.792969 11.09375 9.90625 10.652344 9.90625 10.03125 C 9.90625 9.414063 9.792969 8.972656 9.59375 8.6875 C 9.46875 8.507813 9.285156 8.40625 9.03125 8.40625 Z M 17 13.09375 C 17.917969 13.09375 18.632813 13.347656 19.15625 13.875 C 19.679688 14.402344 19.96875 15.089844 19.96875 15.96875 C 19.96875 16.847656 19.679688 17.566406 19.15625 18.09375 C 18.632813 18.621094 17.917969 18.875 17 18.875 C 16.386719 18.875 15.863281 18.75 15.40625 18.5 C 14.953125 18.25 14.59375 17.898438 14.375 17.4375 C 14.15625 16.976563 14.0625 16.484375 14.0625 15.96875 C 14.0625 15.453125 14.15625 14.988281 14.375 14.53125 C 14.59375 14.070313 14.953125 13.71875 15.40625 13.46875 C 15.863281 13.21875 16.386719 13.09375 17 13.09375 Z M 16.96875 14.375 C 16.71875 14.375 16.53125 14.46875 16.40625 14.65625 C 16.207031 14.9375 16.09375 15.378906 16.09375 16 C 16.09375 16.621094 16.207031 17.0625 16.40625 17.34375 C 16.53125 17.523438 16.714844 17.625 16.96875 17.625 C 17.21875 17.625 17.398438 17.523438 17.53125 17.34375 C 17.730469 17.0625 17.84375 16.621094 17.84375 16 C 17.84375 15.378906 17.730469 14.910156 17.53125 14.625 C 17.398438 14.445313 17.21875 14.375 16.96875 14.375 Z" stroke-linecap="round" />
</g>
</svg>
